<svg xmlns="http://www.w3.org/2000/svg" xmlns:xlink="http://www.w3.org/1999/xlink" width="48" height="48"><defs><linearGradient id="b" x1="1073.403" x2="1097.116" y1="516.451" y2="544.308" gradientTransform="translate(-1643.872 211.343) scale(1.53785)" gradientUnits="userSpaceOnUse" xlink:href="#a"/><linearGradient id="a"><stop offset="0" stop-color="#16ff6a"/><stop offset="1" stop-color="#0090a5"/></linearGradient></defs><g transform="translate(0 -1004.362)"><rect width="48" height="48" y="1004.362" fill="url(#b)" rx="10.144" ry="10.144"/><path style="line-height:normal;text-indent:0;text-align:start;text-decoration-line:none;text-decoration-style:solid;text-decoration-color:#000;text-transform:none;block-progression:tb;isolation:auto;mix-blend-mode:normal" fill="#fff" d="M14.206 1019.465a.501.5 75 0 0-.409.25l-4.73 8.224a.501.5 75 0 0 .183.686l3.073 1.781a.501.5 75 0 0 .681-.183l1.135-1.975.846.49.926.535a4.45 4.45 0 0 0 1.295 3.131 1.54 1.54 0 0 0 .019 1.483c.301.523.87.687 1.438.648-.017.29-.045.586.109.854.399.692 1.266.915 1.976.58.02.213-.032.429.08.625.42.73 1.37.987 2.098.564l1.078-.625 1.069.62a1.541 1.541 0 0 0 2.097-.565c.113-.196.06-.412.08-.625.71.335 1.578.113 1.977-.58.154-.268.126-.565.11-.854.568.04 1.136-.124 1.437-.648.301-.525.159-1.1-.16-1.574.258-.13.528-.255.681-.522a.5.5 0 0 0 .002 0c.022-.037.033-.077.051-.115a.5.5 0 0 0 .16-.166c.395-.68.6-1.456.6-2.242l.394-.229.512-.297.512-.295.336-.195 1.133 1.973a.5.5 0 0 0 .685.183l3.07-1.777a.5.5 0 0 0 .184-.682l-4.728-8.226a.5.5 0 0 0-.46-.25.5.5 0 0 0-.226.064l-3.07 1.781a.5.5 0 0 0-.182.682l.139.242-.338.195-.512.295-.512.297-.408.236a4.446 4.446 0 0 0-2.746-.566 4.382 4.382 0 0 0-1.674.562.5.5 0 0 0-.002 0l-.209.121-.234-.126a4.622 4.622 0 0 0-1.68-.536c-.95-.11-1.902.09-2.724.553l-.926-.535-.85-.492.14-.244a.501.5 75 0 0-.183-.684l-3.07-1.781a.501.5 75 0 0-.273-.066zm.207 1.185 2.207 1.28-4.23 7.357-2.208-1.28 4.23-7.357zm19.175 0 4.23 7.36-2.206 1.277-4.23-7.357 2.206-1.28zm-2.683 2.452 2.457 4.277-.336.195-.512.297a.5.5 0 0 0-.002 0l-.512.299-.023.014a4.514 4.514 0 0 0-.434-1.094.5.5 0 0 0-.035-.072l-1.213-2.11a4.48 4.48 0 0 0-.783-.995l.035-.02.512-.297.512-.297.334-.193zm-13.81.01.845.488.545.316a4.43 4.43 0 0 0-.78.992l-1.212 2.112a4.445 4.445 0 0 0-.452 1.18l-.554-.323-.85-.492 2.457-4.273zm9.589.556a3.43 3.43 0 0 1 2.334 1.166c.151.173.29.364.41.572l1.213 2.11a.5.5 0 0 0 .004.01 3.47 3.47 0 0 1 .394 2.404 1.488 1.488 0 0 0-.304-.242l-4.092-2.373a1.66 1.66 0 0 0-.174-.885.5.5 0 0 0-.033-.078.5.5 0 0 0-.006-.012.5.5 0 0 0-.006-.012 1.643 1.643 0 0 0-.201-.28 1.656 1.656 0 0 0-.248-.222h-.002a1.75 1.75 0 0 0-1.902-.088.5.5 0 0 0-.02.012l-.027.018-2.235 1.293a.5.5 0 0 0-.072.053l-.055.031c-.503.292-1.098.096-1.572-.33l1.332-.775 1.385-.803a.5.5 0 0 0 .014-.01h.004l1.449-.84a.5.5 0 0 0 .002 0l.443-.26h.002a3.415 3.415 0 0 1 1.963-.457zm-5.375.017a3.593 3.593 0 0 1 1.654.303l-.64.371-1.403.813a.5.5 0 0 0-.002 0L19 1026.29a.5.5 0 0 0-.181.681c.694 1.207 2.186 1.708 3.344 1.037l2.24-1.298a.5.5 0 0 0 .02-.014l.116-.074.034-.02c.356-.206.748-.109.949.184a.5.5 0 0 0-.184.928l.45.26a.5.5 0 0 0 .101.059l4.344 2.52c.264.152.35.47.197.737a.52.52 0 0 1-.728.196l-4.864-2.819-.511-.296a.5.5 0 1 0-.502.865l.511.297 4.864 2.818.511.297a.53.53 0 0 1 .196.738.518.518 0 0 1-.729.195l-.512-.296-4.863-2.82-.512-.298a.5.5 0 1 0-.502.866l.512.296.297.172 4.566 2.649a.53.53 0 0 1 .198.736.5.5 0 0 0-.002 0 .519.519 0 0 1-.729.197l-1.023-.593-4.35-2.524-1.025-.594a.5.5 0 0 0-.5.866l5.373 3.117c.264.153.35.47.197.736a.519.519 0 0 1-.728.197l-5.065-2.935a.5.5 0 0 0-.006 0l-.304-.178a.5.5 0 0 0-.008 0l-1.582-.918c-.106-.06-.193-.139-.29-.209a.5.5 0 0 0-.288-.213 3.46 3.46 0 0 1-.674-4.318l1.215-2.111a3.399 3.399 0 0 1 2.736-1.721zm-9.373 3.264a.591.594 0 0 0-.525.297.591.594 0 0 0 .216.81.591.594 0 0 0 .807-.216.591.594 0 0 0-.217-.811.591.594 0 0 0-.281-.08zm24.129 0a.591.594 0 0 0-.283.08.591.594 0 0 0-.215.81.591.594 0 0 0 .806.217.591.594 0 0 0 .217-.81.591.594 0 0 0-.525-.297zm-18.04 6.115c.03.018.053.041.083.06l.764.44a.5.5 0 0 0-.051.027.518.518 0 0 1-.729-.197.537.537 0 0 1-.066-.33zm1.845 1.074.132.078h.002l.938.543-.576.334a.52.52 0 0 1-.729-.197.53.53 0 0 1 .197-.736.5.5 0 0 0 .036-.021zm2.066 1.198 1.07.623-.582.338a.52.52 0 0 1-.728-.198.528.528 0 0 1 .195-.736.5.5 0 0 0 .045-.027z" color="#000" font-family="sans-serif" font-weight="400" overflow="visible"/></g></svg>